<svg width="272" height="93" viewBox="0 0 272 93" fill="none" xmlns="http://www.w3.org/2000/svg">
<g clip-path="url(#clip0_3105_203)">
<path d="M107.41 33.6328V63H102.957V33.6328H91.6133V29.9766H118.754V33.6328H107.41ZM125.645 49.7812V63H121.426V43.5469C121.426 42.6562 121.41 41.7188 121.379 40.7344C121.363 39.75 121.332 38.7188 121.285 37.6406H125.27C125.301 38.3594 125.324 39.0078 125.34 39.5859C125.371 40.1641 125.395 40.6719 125.41 41.1094C125.426 41.5312 125.434 41.8906 125.434 42.1875C125.449 42.4688 125.457 42.6797 125.457 42.8203H125.551C126.02 41.2891 126.535 40.1016 127.098 39.2578C127.645 38.4766 128.27 37.9375 128.973 37.6406C129.676 37.3281 130.543 37.1719 131.574 37.1719C132.152 37.1719 132.723 37.25 133.285 37.4062V41.2734C132.754 41.1172 132.004 41.0391 131.035 41.0391C129.285 41.0391 127.949 41.7969 127.027 43.3125C126.105 44.8125 125.645 46.9688 125.645 49.7812ZM143.785 63.4688C141.238 63.4688 139.324 62.7969 138.043 61.4531C136.762 60.1094 136.121 58.2656 136.121 55.9219C136.121 53.2969 136.98 51.2812 138.699 49.875C140.434 48.4688 143.223 47.7188 147.066 47.625L152.762 47.5312V46.1484C152.762 44.0859 152.324 42.6094 151.449 41.7188C150.574 40.8281 149.199 40.3828 147.324 40.3828C145.434 40.3828 144.059 40.7031 143.199 41.3438C142.34 41.9844 141.824 43.0078 141.652 44.4141L137.246 44.0156C137.965 39.4531 141.355 37.1719 147.418 37.1719C150.605 37.1719 153.004 37.9062 154.613 39.375C156.223 40.8281 157.027 42.9375 157.027 45.7031V56.625C157.027 57.875 157.191 58.8203 157.52 59.4609C157.848 60.0859 158.473 60.3984 159.395 60.3984C159.832 60.3984 160.293 60.3438 160.777 60.2344V62.8594C160.246 62.9844 159.707 63.0781 159.16 63.1406C158.613 63.2031 158.066 63.2344 157.52 63.2344C155.957 63.2344 154.816 62.8281 154.098 62.0156C153.395 61.1875 152.996 59.8984 152.902 58.1484H152.762C151.684 60.0859 150.426 61.4609 148.988 62.2734C147.566 63.0703 145.832 63.4688 143.785 63.4688ZM152.762 50.4844L148.145 50.5781C146.176 50.5938 144.676 50.7969 143.645 51.1875C142.613 51.5625 141.824 52.1406 141.277 52.9219C140.73 53.7031 140.457 54.7266 140.457 55.9922C140.457 57.3672 140.824 58.4297 141.559 59.1797C142.309 59.9297 143.371 60.3047 144.746 60.3047C146.309 60.3047 147.684 59.9531 148.871 59.25C150.074 58.5469 151.02 57.5859 151.707 56.3672C152.41 55.1328 152.762 53.8672 152.762 52.5703V50.4844ZM173.762 63.4688C170.215 63.4688 167.504 62.3516 165.629 60.1172C163.77 57.8672 162.84 54.5938 162.84 50.2969C162.84 46.0312 163.777 42.7812 165.652 40.5469C167.527 38.2969 170.215 37.1719 173.715 37.1719C176.309 37.1719 178.457 37.8438 180.16 39.1875C181.879 40.5312 182.957 42.3828 183.395 44.7422L179.059 45.0703C178.84 43.6641 178.285 42.5469 177.395 41.7188C176.504 40.8906 175.238 40.4766 173.598 40.4766C171.363 40.4766 169.746 41.2188 168.746 42.7031C167.746 44.1875 167.246 46.6875 167.246 50.2031C167.246 53.5781 167.777 56.0781 168.84 57.7031C169.902 59.3281 171.504 60.1406 173.645 60.1406C175.145 60.1406 176.395 59.7344 177.395 58.9219C178.41 58.1094 179.035 56.8594 179.27 55.1719L183.535 55.4531C183.316 57.0781 182.77 58.4922 181.895 59.6953C181.035 60.8984 179.91 61.8281 178.52 62.4844C177.145 63.1406 175.559 63.4688 173.762 63.4688ZM192.254 53.9766V63H188.035V28.2188H192.254V49.9453L203.387 37.6406H208.332L198.043 48.5391L208.871 63H203.926L195.348 51.4219L192.254 53.9766Z" fill="black"/>
<path fill-rule="evenodd" clip-rule="evenodd" d="M41.9509 27.3612C46.4254 27.9738 51.2479 29.6519 55.8041 31.6895L68.2025 20.2856L70.9104 23.2297L59.6985 33.5422C61.0884 34.2411 62.4327 34.9558 63.7116 35.6631C67.5119 37.7652 70.8385 39.8636 73.2144 41.4357C74.4033 42.2224 75.3566 42.879 76.0149 43.3404C76.3441 43.5712 76.5997 43.7533 76.7743 43.8787C76.8616 43.9414 76.9286 43.9899 76.9745 44.0232L77.0273 44.0616L77.0416 44.0721L77.0457 44.0751L77.0469 44.076C77.0473 44.0763 77.0477 44.0765 75.8922 45.6513L76 45.801C77.1687 47.4239 77.1684 47.4242 77.168 47.4245L77.1667 47.4254L77.1625 47.4284L77.1481 47.4387L77.0947 47.4769C77.0483 47.51 76.9805 47.5581 76.8922 47.6203C76.7156 47.7447 76.4571 47.9254 76.1242 48.1543C75.4585 48.6121 74.4945 49.2631 73.2926 50.0426C70.8906 51.6003 67.5286 53.6774 63.6902 55.7521C61.5744 56.8957 59.2817 58.0569 56.9015 59.1344L66.3784 70.8702L63.2663 73.3833L53.0702 60.7567C48.2735 62.6398 43.3225 63.9963 38.891 64.0645L38.3475 79.1787L34.3501 79.035L34.8984 63.7883C30.2049 63.106 25.1372 61.2455 20.4003 59.0302L9.03082 69.3148L6.34746 66.3484L16.5479 57.1213C15.3959 56.5199 14.2785 55.9102 13.2074 55.3061C9.42461 53.1726 6.11557 51.0467 3.75276 49.4549C2.57041 48.6583 1.62258 47.9939 0.968135 47.527C0.640861 47.2935 0.386789 47.1092 0.213274 46.9824C0.12651 46.919 0.059875 46.87 0.014285 46.8363L-0.0382124 46.7974L-0.0524151 46.7869L-0.0564643 46.7838L-0.0577231 46.7829C-0.0581077 46.7826 -0.0584148 46.7824 0.880044 45.5253C-0.182142 44.0758 -0.181817 44.0755 -0.181411 44.0752L-0.180138 44.0743L-0.17604 44.0713L-0.161673 44.0608L-0.108564 44.0222C-0.0624409 43.9888 0.00496896 43.9401 0.0927336 43.8771C0.268253 43.7513 0.525246 43.5684 0.856253 43.3368C1.51816 42.8735 2.47668 42.2145 3.67211 41.4251C6.06103 39.8475 9.40575 37.7426 13.2268 35.6361C14.3031 35.0427 15.4257 34.4443 16.5826 33.8546L7.41696 22.6949L10.508 20.1562L20.2851 32.0604C26.1029 29.3939 32.4259 27.2492 37.9561 27.1182L38.3742 12L42.3727 12.1106L41.9509 27.3612ZM71.0071 44.7716C71.561 45.1381 72.0615 45.475 72.5023 45.7754C72.0878 46.0516 71.6241 46.3571 71.1161 46.6865C68.7775 48.2032 65.5092 50.222 61.7882 52.2332C54.2315 56.3178 45.2194 60.139 38.3523 60.0662C31.5203 59.9937 22.6199 56.0226 15.1724 51.8221C11.5052 49.7537 8.28828 47.6874 5.98767 46.1375C5.60254 45.878 5.24335 45.6332 4.91232 45.4055C5.21242 45.2036 5.53427 44.9888 5.87635 44.7629C8.20231 43.2269 11.4538 41.1811 15.1579 39.1391C22.6805 34.9919 31.6606 31.096 38.528 31.1119C45.3604 31.1276 54.2934 35.0248 61.7755 39.1634C65.4598 41.2013 68.6937 43.2408 71.0071 44.7716ZM38.967 50.7797C40.8376 50.7797 42.9882 48.9875 42.9882 45.9564C42.9882 42.9253 40.8376 41.1331 38.967 41.1331C37.0964 41.1331 34.9458 42.9253 34.9458 45.9564C34.9458 48.9875 37.0964 50.7797 38.967 50.7797ZM38.967 54.7797C43.397 54.7797 46.9882 50.8294 46.9882 45.9564C46.9882 41.0834 43.397 37.1331 38.967 37.1331C34.537 37.1331 30.9458 41.0834 30.9458 45.9564C30.9458 50.8294 34.537 54.7797 38.967 54.7797Z" fill="black"/>
</g>
<defs>
<clipPath id="clip0_3105_203">
<rect width="272" height="93" fill="white"/>
</clipPath>
</defs>
</svg>
