<svg width="38" height="38" viewBox="0 0 38 38" fill="none" xmlns="http://www.w3.org/2000/svg">
<path d="M20.8889 36V31.75C20.8889 25.882 16.6604 21.125 11.4444 21.125C6.22843 21.125 2 25.882 2 31.75V36H20.8889ZM20.8889 36H36V33.875C36 27.6158 31.7715 23.25 26.5556 23.25C23.886 23.25 21.475 24.5792 19.7573 26.7161M17.1111 8.375C17.1111 11.8958 14.574 14.75 11.4444 14.75C8.31484 14.75 5.77778 11.8958 5.77778 8.375C5.77778 4.85419 8.31484 2 11.4444 2C14.574 2 17.1111 4.85419 17.1111 8.375ZM30.3333 12.625C30.3333 14.9723 28.642 16.875 26.5556 16.875C24.4691 16.875 22.7778 14.9723 22.7778 12.625C22.7778 10.2778 24.4691 8.375 26.5556 8.375C28.642 8.375 30.3333 10.2778 30.3333 12.625Z" stroke="black" stroke-width="4" stroke-linecap="round" stroke-linejoin="round"/>
</svg>
